<svg width="1200" height="900" viewBox="0 0 1200 900" fill="none" xmlns="http://www.w3.org/2000/svg">
  <rect width="1200" height="900" rx="48" fill="#0b1120"/>
  <rect x="90" y="84" width="1020" height="732" rx="42" fill="#111827"/>
  <path d="M90 214h1020" stroke="#263244" stroke-width="3"/>
  <circle cx="142" cy="149" r="17" fill="#f97316"/>
  <circle cx="195" cy="149" r="17" fill="#facc15"/>
  <circle cx="248" cy="149" r="17" fill="#22c55e"/>
  <rect x="690" y="286" width="278" height="346" rx="26" fill="#172033" stroke="#334155" stroke-width="4"/>
  <rect x="728" y="330" width="202" height="20" rx="10" fill="#38bdf8"/>
  <rect x="728" y="382" width="144" height="16" rx="8" fill="#64748b"/>
  <rect x="728" y="428" width="180" height="16" rx="8" fill="#64748b"/>
  <rect x="728" y="474" width="116" height="16" rx="8" fill="#64748b"/>
  <rect x="728" y="536" width="202" height="54" rx="16" fill="#22c55e"/>
  <path d="M230 584c32-68 85-103 159-103 75 0 129 35 162 103" stroke="#38bdf8" stroke-width="26" stroke-linecap="round"/>
  <circle cx="389" cy="357" r="96" fill="#1f2937" stroke="#38bdf8" stroke-width="9"/>
  <rect x="287" y="592" width="207" height="51" rx="18" fill="#38bdf8"/>
  <rect x="210" y="644" width="360" height="52" rx="18" fill="#0f172a" stroke="#334155" stroke-width="4"/>
  <path d="M342 364l-45 42 45 42" stroke="#e5f6ff" stroke-width="22" stroke-linecap="round" stroke-linejoin="round"/>
  <path d="M436 364l45 42-45 42" stroke="#e5f6ff" stroke-width="22" stroke-linecap="round" stroke-linejoin="round"/>
  <path d="M408 336l-39 143" stroke="#22c55e" stroke-width="18" stroke-linecap="round"/>
  <circle cx="594" cy="294" r="12" fill="#22c55e"/>
  <circle cx="621" cy="514" r="9" fill="#38bdf8"/>
  <circle cx="1000" cy="697" r="13" fill="#f97316"/>
  <path d="M159 738c190 46 389 52 597 18 97-16 178-15 244 5" stroke="#263244" stroke-width="4" stroke-linecap="round"/>
  <g opacity="0.6">
    <path d="M981 241h58M1010 212v58" stroke="#38bdf8" stroke-width="8" stroke-linecap="round"/>
    <path d="M198 279h43M220 258v43" stroke="#22c55e" stroke-width="7" stroke-linecap="round"/>
  </g>
</svg>
